<svg xmlns="http://www.w3.org/2000/svg">
  <defs>
    <symbol id="inbox" viewBox="0 0 24 24">
      <path d="M3 8L3 17C3 18.1046 3.89543 19 5 19L19 19C20.1046 19 21 18.1046 21 17V8" stroke="currentColor" stroke-width="1.5" stroke-linecap="round" stroke-linejoin="round"/>
      <path d="M3 8L9 8L11 11L13 11L15 8L21 8" stroke="currentColor" stroke-width="1.5" stroke-linecap="round" stroke-linejoin="round"/>
      <path d="M21 8L21 6C21 5.44772 20.5523 5 20 5L4 5C3.44772 5 3 5.44772 3 6L3 8" stroke="currentColor" stroke-width="1.5" stroke-linecap="round" stroke-linejoin="round"/>
    </symbol>
    
    <symbol id="calendar" viewBox="0 0 24 24">
      <rect x="4" y="5" width="16" height="16" rx="2" stroke="currentColor" stroke-width="1.5" stroke-linecap="round" stroke-linejoin="round"/>
      <path d="M4 9H20" stroke="currentColor" stroke-width="1.5" stroke-linecap="round" stroke-linejoin="round"/>
      <path d="M8 3V7" stroke="currentColor" stroke-width="1.5" stroke-linecap="round" stroke-linejoin="round"/>
      <path d="M16 3V7" stroke="currentColor" stroke-width="1.5" stroke-linecap="round" stroke-linejoin="round"/>
      <text x="12" y="16" font-family="Arial, sans-serif" font-size="8" font-weight="600" fill="currentColor" text-anchor="middle">02</text>
    </symbol>
    
    <symbol id="checklist" viewBox="0 0 24 24">
      <rect x="4" y="5" width="16" height="16" rx="2" stroke="currentColor" stroke-width="1.5" stroke-linecap="round" stroke-linejoin="round"/>
      <path d="M8 10H16" stroke="currentColor" stroke-width="1.5" stroke-linecap="round" stroke-linejoin="round"/>
      <path d="M8 14H16" stroke="currentColor" stroke-width="1.5" stroke-linecap="round" stroke-linejoin="round"/>
      <path d="M8 18H13" stroke="currentColor" stroke-width="1.5" stroke-linecap="round" stroke-linejoin="round"/>
    </symbol>
    
    <symbol id="grid" viewBox="0 0 24 24">
      <rect x="5" y="5" width="6" height="6" rx="1" stroke="currentColor" stroke-width="1.5" stroke-linecap="round" stroke-linejoin="round"/>
      <rect x="13" y="5" width="6" height="6" rx="1" stroke="currentColor" stroke-width="1.5" stroke-linecap="round" stroke-linejoin="round"/>
      <rect x="5" y="13" width="6" height="6" rx="1" stroke="currentColor" stroke-width="1.5" stroke-linecap="round" stroke-linejoin="round"/>
      <rect x="13" y="13" width="6" height="6" rx="1" stroke="currentColor" stroke-width="1.5" stroke-linecap="round" stroke-linejoin="round"/>
    </symbol>
    
    <symbol id="checkmark" viewBox="0 0 24 24">
      <circle cx="12" cy="12" r="9" stroke="currentColor" stroke-width="1.5" stroke-linecap="round" stroke-linejoin="round"/>
      <path d="M8 12L11 15L16 9" stroke="currentColor" stroke-width="1.5" stroke-linecap="round" stroke-linejoin="round"/>
    </symbol>
  </defs>
</svg>